<?xml version="1.0" encoding="utf-8"?>
<!-- Generator: Adobe Illustrator 21.1.0, SVG Export Plug-In . SVG Version: 6.00 Build 0)  -->
<svg version="1.1" id="Layer_1" xmlns="http://www.w3.org/2000/svg" xmlns:xlink="http://www.w3.org/1999/xlink" x="0px" y="0px"
	 viewBox="0 0 240 88" style="enable-background:new 0 0 240 88;" xml:space="preserve">
<style type="text/css">
	.st0{fill:#1D1D1B;}
	.st1{fill:#E52E36;}
	.st2{fill:#12110B;}
	.st3{fill:#9ACE50;}
	.st4{fill:#00B9F1;}
</style>
<g>
	<path class="st0" d="M151.8,33.7h4.6l6.1,17.4h0.1l6.1-17.4h4.6v32.8h-4.8V46.6h-0.1l-4.7,14.1h-2.4l-4.7-14.1h-0.1v19.9h-4.8V33.7
		z"/>
	<path class="st0" d="M177.2,33.7h14.2v4.4H182v9.6h8.2v4.4H182v9.6h9.4v4.7h-14.2V33.7z"/>
	<path class="st0" d="M194.4,33.7h7.1c5.4,0,8.4,3.2,8.4,8.5v15.3c0,6.1-3.2,9-8.8,9h-6.6V33.7z M199.2,62.1h2.2
		c2.7,0,3.7-1.3,3.7-4.1V42.2c0-2.6-0.9-4.1-3.7-4.1h-2.2V62.1z"/>
	<path class="st0" d="M213.7,33.7h4.8v32.8h-4.8V33.7z"/>
	<path class="st0" d="M228.6,33.7h4l7.4,32.8h-4.8l-1.4-7h-6.5l-1.4,7h-4.8L228.6,33.7z M230.6,43.2L230.6,43.2L228.2,55h4.8
		L230.6,43.2z"/>
	<g>
		<polygon points="31.8,87.3 45.2,87.3 38.1,66.7 25.3,66.7 		"/>
		<rect y="66.7" width="12.6" height="20.6"/>
		<path d="M12.6,12.4h6.5c9.3,0,10.7,4.7,10.7,13.5c0,3-0.2,5.6-0.8,7.7h12.7c0.5-2.3,0.7-4.8,0.7-7.4c0-16.8-7.3-25.4-22.2-25.4H0
			v32.8h12.6V12.4z"/>
		<path class="st1" d="M41.8,33.6H29.1c-1.1,3.8-3.7,5.8-9.3,5.8h-7.2v-5.8H0v33.1h12.6V50.3h7.5l5.2,16.3h12.8l-6.5-18.9
			C37.5,44.6,40.6,39.8,41.8,33.6z"/>
	</g>
	<g>
		<path class="st2" d="M79.8,66.8c0,6-4,8.8-8.5,8.8c-4.6,0-8.5-2.8-8.5-8.8v-0.2H50.1v0.2C50.1,81,61,88,71.2,88
			c10.2,0,21.1-7,21.1-21.2v-0.2H79.8V66.8z"/>
		<path class="st2" d="M92.4,25.5v-4.4C92.4,7,81.5,0,71.2,0C61,0,50.1,7,50.1,21.1v12.4h12.6V21.1c0-6,3.9-8.7,8.5-8.7
			c4.6,0,8.5,2.8,8.5,8.7v4.4H92.4z"/>
		<polygon class="st3" points="69.8,50.6 79.8,50.6 79.8,66.7 92.4,66.7 92.4,39.6 69.8,39.6 		"/>
		<rect x="50.1" y="33.6" class="st3" width="12.6" height="33.1"/>
	</g>
	<path d="M113.4,12.4h5.2c8.3,0,11.1,4,11.1,11.7c0,4.3-0.6,7.5-2.6,9.5h13.3c0.7-2.1,1.1-4.6,1.1-7.8v-3.2c0-11.3-6-21.9-22.3-21.9
		h-18.4v32.8h12.6V12.4z"/>
	<path d="M118.8,74.9h-5.4v-8.2h-12.6v20.6H118c15.2,0,22.5-7.4,23.5-20.6h-12.1C128.6,71.7,126.2,74.9,118.8,74.9z"/>
	<path class="st4" d="M141.5,58.8c0-9-2.7-14.2-8.6-17c3.6-2.2,6.2-4.4,7.5-8.2h-13.3c-1.6,1.7-4.2,2.6-8.1,2.6h-5.7v-2.6h-12.6
		v33.1h12.6V47.2h5.6c9.1,0,10.7,4.5,10.7,13.1c0,2.3-0.1,4.5-0.3,6.4h12.1c0.1-1,0.1-2,0.1-3V58.8z"/>
</g>
</svg>
