<?xml version="1.0" encoding="UTF-8"?>
<svg width="300px" height="48px" viewBox="0 0 300 48" version="1.1" xmlns="http://www.w3.org/2000/svg" xmlns:xlink="http://www.w3.org/1999/xlink">
    <title>AllIsrael-ligo-footer</title>
    <g id="AllIsrael-ligo-footer" stroke="none" stroke-width="1" fill="none" fill-rule="evenodd">
        <g id="Group-14-Copy-3" fill-rule="nonzero">
            <g id="Group-3-Copy-2">
                <g id="Group" fill="#2A97CF">
                    <polygon id="Shape" points="54.3482205 46.9570266 39.6765674 46.9570266 30.6842638 31.1969908 38.0200904 18.510162"></polygon>
                    <polygon id="Shape" points="27.3713099 0.14972034 34.7071364 12.8365492 15.1449323 46.9570266 0.473279133 46.9570266"></polygon>
                </g>
                <polygon id="Shape" fill="#FFFFFF" points="81.2462512 47.0358268 81.2462512 15.7521558 86.6100814 15.7521558 86.6100814 46.9570266 81.2462512 46.9570266"></polygon>
                <polygon id="Shape" fill="#FFFFFF" points="88.5820778 47.0358268 88.5820778 15.7521558 93.945908 15.7521558 93.945908 46.9570266 88.5820778 46.9570266"></polygon>
                <path d="M73.8315448,24.7353762 L73.8315448,26.0749792 C73.2793858,25.6809783 72.648347,25.3657776 72.0173081,25.1293771 C70.5974707,24.4989756 69.0987535,24.1837749 67.4422765,24.1837749 C65.7857995,24.1837749 64.2870823,24.4989756 62.8672449,25.1293771 C61.4474075,25.7597785 60.1853298,26.5477803 59.1598917,27.6509828 C58.0555737,28.7541853 57.2667751,29.936188 56.6357363,31.3545912 C56.0046975,32.7729944 55.689178,34.2701978 55.689178,35.9250016 C55.689178,37.5010052 56.0046975,38.9982086 56.6357363,40.495412 C57.2667751,41.9138152 58.0555737,43.174618 59.1598917,44.1990204 C60.2642097,45.3022229 61.4474075,46.0902247 62.8672449,46.7206261 C64.1293226,47.2722273 65.54916,47.5874281 66.9689974,47.5874281 L66.9689974,47.5874281 C67.1267571,47.5874281 67.2845168,47.5874281 67.4422765,47.5874281 C69.0198736,47.5874281 70.439711,47.2722273 71.7806686,46.7994263 L71.7806686,40.5742121 C70.6763506,41.6774146 69.0987535,42.3078161 67.4422765,42.3078161 C66.4168384,42.3078161 65.3914003,42.0714155 64.5237219,41.5986145 C64.5237219,41.5986145 64.444842,41.5986145 64.444842,41.5198143 C63.8138032,41.1258134 63.1827643,40.6530123 62.7094852,40.1014111 L62.7094852,40.1014111 C62.7094852,40.1014111 62.6306053,40.0226109 62.6306053,40.0226109 C62.5517255,39.9438107 62.5517255,39.8650105 62.4728456,39.7862103 C62.1573262,39.3922095 61.9206866,38.9982086 61.6840471,38.5254075 L61.6840471,38.5254075 C61.2896478,37.7374057 61.0530082,36.7918035 61.0530082,35.8462014 C61.0530082,32.3001933 63.892683,29.4633869 67.4422765,29.4633869 C68.4677146,29.4633869 69.4931528,29.6997874 70.3608312,30.1725885 C70.3608312,30.1725885 70.439711,30.1725885 70.439711,30.2513887 C72.4117074,31.3545912 73.752665,33.4033959 73.8315448,35.8462014 L73.8315448,47.0358268 L79.195375,47.0358268 L79.195375,24.7353762 L73.8315448,24.7353762 Z" id="Shape" fill="#FFFFFF"></path>
                <path d="M114.69131,33.1669953 C115.085709,33.2457955 115.637868,33.482196 116.505547,33.7973967 C117.373225,34.1125975 118.162024,34.5853985 119.108582,35.1369998 C119.97626,35.688601 120.765059,36.4766028 121.396098,37.2646046 C122.027137,38.1314066 122.342656,39.1558089 122.342656,40.3378116 C122.342656,41.3622139 122.184896,42.3078161 121.790497,43.174618 C121.474978,44.04142 120.922819,44.8294218 120.29178,45.4598232 C119.660741,46.0902247 118.871942,46.6418259 117.846504,46.9570266 C116.899946,47.3510275 115.795628,47.5086279 114.61243,47.5086279 C112.798193,47.5086279 111.141716,47.1934272 109.564119,46.5630257 C107.986522,45.9326243 106.724445,45.1446225 105.777886,44.1202202 L109.48524,40.4166118 C110.274038,41.3622139 111.062837,41.9138152 111.930515,42.2290159 C112.798193,42.4654164 113.508112,42.6230168 114.139151,42.6230168 C115.085709,42.6230168 115.716748,42.4654164 116.190027,42.0714155 C116.663306,41.6774146 116.821066,41.2834137 116.821066,40.8106127 C116.821066,40.4166118 116.663306,40.1802112 116.347787,39.8650105 C116.032268,39.62861 115.716748,39.3922095 115.322349,39.2346091 C114.92795,39.0770087 114.53355,38.9194084 114.060271,38.8406082 C113.665872,38.761808 113.271473,38.6042077 113.034833,38.5254075 C112.640434,38.3678071 112.088275,38.2102068 111.220596,37.8950061 C110.352918,37.5798053 109.48524,37.1858044 108.617561,36.6342032 C107.749883,36.0826019 106.961084,35.3734003 106.330045,34.5065984 C105.699006,33.6397964 105.383487,32.6153941 105.383487,31.3545912 C105.383487,30.0937883 105.620127,28.9905858 106.014526,28.1237839 C106.408925,27.1781817 107.039964,26.4689801 107.749883,25.8385787 C108.459801,25.2081772 109.2486,24.8141764 110.195158,24.4989756 C111.141716,24.1837749 112.088275,24.1049747 113.034833,24.1049747 C114.53355,24.1049747 115.874508,24.2625751 116.899946,24.656576 C117.925384,25.0505769 118.793062,25.3657776 119.502981,25.8385787 C120.29178,26.3113798 120.922819,26.9417812 121.474978,27.5721826 L117.688745,31.3545912 C117.057706,30.5665894 116.426667,30.0149882 115.716748,29.6209873 C115.006829,29.2269864 114.218031,29.069386 113.429232,29.069386 C112.798193,29.069386 112.167155,29.2269864 111.614996,29.5421871 C110.983957,29.8573878 110.668437,30.3301889 110.668437,30.9605903 C110.668437,31.3545912 110.826197,31.5909917 111.062837,31.9061925 C111.299476,32.142593 111.693875,32.3789935 112.009395,32.5365939 C112.403794,32.6941942 112.798193,32.8517946 113.271473,32.9305948 C113.981391,33.009395 114.375791,33.0881951 114.69131,33.1669953 Z" id="Shape" fill="#FFFFFF"></path>
                <path d="M132.123758,24.7353762 C133.149196,24.2625751 134.411274,24.1049747 135.752231,24.1049747 L135.752231,29.4633869 C133.937995,29.4633869 132.439277,30.0937883 131.1772,31.3545912 C129.915122,32.6941942 129.284083,34.1913976 129.284083,35.9250016 L129.284083,47.114627 L123.920253,47.114627 L123.920253,35.9250016 L123.920253,24.7353762 L129.284083,24.7353762 L129.284083,26.4689801 C130.151762,25.6809783 131.01944,25.1293771 132.123758,24.7353762 Z" id="Shape" fill="#FFFFFF"></path>
                <polygon id="Shape" fill="#FFFFFF" points="185.44654 47.0358268 185.44654 15.7521558 190.810371 15.7521558 190.810371 46.9570266 185.44654 46.9570266"></polygon>
                <polygon id="Rectangle-path" fill="#FFFFFF" points="98.4420597 15.830956 103.80589 15.830956 103.80589 21.2681683 98.4420597 21.2681683"></polygon>
                <polygon id="Rectangle-path" fill="#FFFFFF" points="98.4420597 23.5533735 103.80589 23.5533735 103.80589 46.9570266 98.4420597 46.9570266"></polygon>
                <path d="M178.189594,38.6042077 L183.790063,38.6042077 C184.026703,37.7374057 184.105583,36.8706037 184.105583,35.9250016 C184.105583,34.2701978 183.790063,32.7729944 183.159025,31.3545912 C182.527986,29.936188 181.739187,28.6753851 180.634869,27.6509828 C179.530551,26.5477803 178.347353,25.7597785 176.927516,25.1293771 C175.507679,24.4989756 174.008961,24.1837749 172.352484,24.1837749 C170.696007,24.1837749 169.19729,24.4989756 167.777453,25.1293771 C166.357615,25.7597785 165.095538,26.5477803 164.0701,27.6509828 C162.965782,28.7541853 162.176983,29.936188 161.545944,31.3545912 C160.914905,32.7729944 160.599386,34.2701978 160.599386,35.9250016 C160.599386,37.5010052 160.914905,38.9982086 161.545944,40.495412 C162.176983,41.9138152 162.965782,43.174618 164.0701,44.1990204 C165.174418,45.3022229 166.357615,46.0902247 167.777453,46.7206261 C169.03953,47.2722273 170.459368,47.5874281 171.879205,47.5874281 L171.879205,47.5874281 C172.036965,47.5874281 172.194725,47.5874281 172.352484,47.5874281 C174.008961,47.5874281 175.507679,47.2722273 176.927516,46.6418259 C178.347353,46.0114245 179.609431,45.2234227 180.634869,44.1202202 C181.739187,43.0170177 182.527986,41.835015 183.159025,40.4166118 C183.237904,40.3378116 183.237904,40.1802112 183.237904,40.1014111 L177.085276,40.1014111 C177.006396,40.1802112 176.927516,40.2590114 176.848636,40.3378116 C175.507679,41.5986145 174.008961,42.2290159 172.273605,42.2290159 C170.459368,42.2290159 168.960651,41.5986145 167.698573,40.3378116 C167.619693,40.2590114 167.540813,40.1802112 167.461933,40.1014111 L167.461933,40.1014111 C166.988654,39.62861 166.673135,39.1558089 166.436495,38.5254075 L178.189594,38.5254075 L178.189594,38.6042077 Z M167.777453,31.3545912 C169.11841,30.0937883 170.617128,29.4633869 172.352484,29.4633869 C174.166721,29.4633869 175.665438,30.0937883 176.927516,31.3545912 C177.479675,31.9061925 177.952954,32.5365939 178.189594,33.2457955 L166.515375,33.2457955 C166.830895,32.5365939 167.225294,31.9061925 167.777453,31.3545912 Z" id="Shape" fill="#FFFFFF"></path>
                <path d="M153.657959,24.7353762 L153.657959,26.0749792 C153.1058,25.6809783 152.474761,25.3657776 151.843722,25.1293771 C150.423885,24.4989756 148.925167,24.1837749 147.26869,24.1837749 C145.612213,24.1837749 144.113496,24.4989756 142.693659,25.1293771 C141.273821,25.7597785 140.011744,26.5477803 138.986306,27.6509828 C137.881988,28.7541853 137.093189,29.936188 136.46215,31.3545912 C135.831111,32.7729944 135.515592,34.2701978 135.515592,35.9250016 C135.515592,37.5010052 135.831111,38.9982086 136.46215,40.495412 C137.093189,41.9138152 137.881988,43.174618 138.986306,44.1990204 C140.090623,45.3022229 141.273821,46.0902247 142.693659,46.7206261 C143.955736,47.2722273 145.375574,47.5874281 146.795411,47.5874281 L146.795411,47.5874281 C146.953171,47.5874281 147.110931,47.5874281 147.26869,47.5874281 C148.846287,47.5874281 150.266125,47.2722273 151.607082,46.7994263 L151.607082,40.5742121 C150.502764,41.6774146 148.925167,42.3078161 147.26869,42.3078161 C146.243252,42.3078161 145.217814,42.0714155 144.350136,41.5986145 C144.350136,41.5986145 144.271256,41.5986145 144.271256,41.5198143 C143.640217,41.1258134 143.009178,40.6530123 142.535899,40.1014111 L142.535899,40.1014111 C142.535899,40.1014111 142.457019,40.0226109 142.457019,40.0226109 C142.378139,39.9438107 142.378139,39.8650105 142.299259,39.7862103 C141.98374,39.3922095 141.7471,38.9982086 141.510461,38.5254075 L141.510461,38.5254075 C141.116062,37.7374057 140.879422,36.7918035 140.879422,35.8462014 C140.879422,32.3001933 143.719097,29.4633869 147.26869,29.4633869 C148.294128,29.4633869 149.319567,29.6997874 150.187245,30.1725885 C150.187245,30.1725885 150.266125,30.1725885 150.266125,30.2513887 C152.238121,31.3545912 153.579079,33.4033959 153.657959,35.8462014 L153.657959,47.0358268 L159.021789,47.0358268 L159.021789,24.7353762 L153.657959,24.7353762 Z" id="Shape" fill="#FFFFFF"></path>
                <path d="M202.679049,47.3545817 L202.679049,33.7198569 C202.679049,32.0806034 204.628789,28.6769134 208.178589,28.6769134 C211.72839,28.6769134 213.783451,32.0806034 213.783451,33.7198569 L213.783451,47.3545817 L219.46575,47.3545817 L219.46575,32.5137849 C219.46575,27.1654183 214.294555,22.9210696 208.851527,22.9210696 C205.869695,22.9210696 204.038728,24.2181567 202.679049,25.6892158 L202.679049,23.4262948 L196.891428,23.4262948 L196.891428,47.3545817 L202.679049,47.3545817 Z" id="n" fill="#2A97CF"></path>
            </g>
            <path d="M239.893435,38.161105 L227.437184,38.161105 C227.761571,38.8921666 228.231564,39.5491625 228.818356,40.0918252 C229.446887,40.744783 230.200773,41.2636115 231.034657,41.6170941 C231.866999,41.9466623 232.754257,42.1148271 233.649249,42.1126456 C234.868232,42.1368991 236.070443,41.8252256 237.124665,41.2116429 L243.06692,43.5928644 C241.931148,44.9122984 240.524329,45.9704279 238.942674,46.6948881 C237.283674,47.4445541 235.481983,47.8244312 233.662097,47.8082701 C231.981387,47.8213219 230.315695,47.4906441 228.766964,46.8364743 C225.755597,45.5611235 223.358979,43.1601504 222.085942,40.1433111 C221.434975,38.6069478 221.104853,36.9533405 221.115909,35.284332 C221.102881,33.6005675 221.432959,31.9318488 222.085942,30.3803028 C223.358979,27.3634635 225.755597,24.9624904 228.766964,23.6871396 C231.902828,22.3831713 235.427791,22.3831713 238.563655,23.6871396 C241.575309,24.9598364 243.970762,27.3619521 245.238252,30.3803028 C245.89641,31.9304672 246.228802,33.5998267 246.214709,35.284332 C246.222312,36.2470263 246.110097,37.2069156 245.880658,38.1417978 L239.893435,38.161105 Z M233.662097,28.4431469 C231.845532,28.4356889 230.10144,29.1563764 228.818356,30.4446601 C228.235115,31.0177775 227.766347,31.6970877 227.437184,32.4461734 L239.893435,32.4461734 C238.786149,29.9974263 236.345476,28.429532 233.662097,28.4431469 Z" id="Shape" fill="#2A97CF"></path>
            <polygon id="Shape" fill="#2A97CF" points="282.334078 23.9335342 274.343112 47.1965795 268.345096 47.1965795 263.33078 32.2327828 258.322852 47.1965795 252.363162 47.1965795 244.378583 23.9335342 250.331885 23.9335342 255.339813 38.960204 260.354129 23.9335342 266.358533 23.9335342 271.366461 38.960204 276.380776 23.9335342"></polygon>
            <path d="M291.383413,32.7831619 C292.031859,32.9592491 292.670312,33.1694464 293.296038,33.4128541 C294.247262,33.7894653 295.155496,34.2643753 296.005589,34.8296615 C296.939563,35.4412389 297.76103,36.2057423 298.434622,37.0902566 C299.135539,38.0178984 299.501424,39.1508154 299.473814,40.3079838 C299.487714,41.3279404 299.303765,42.3410931 298.931904,43.2927249 C298.576634,44.1834551 298.038273,44.9917744 297.350801,45.6666645 C296.625977,46.3703391 295.756197,46.9115543 294.800635,47.2534889 C293.710661,47.6376464 292.559692,47.8253354 291.40254,47.8076181 C289.566435,47.8234568 287.745647,47.4766282 286.047192,46.7875167 C284.56456,46.2105439 283.209225,45.3551772 282.056182,44.2687478 L285.945185,40.4276253 C286.611634,41.2953073 287.520127,41.9518741 288.559105,42.316702 C289.315105,42.5642205 290.102938,42.7041572 290.898882,42.7322988 C291.663758,42.7913029 292.426673,42.5962736 293.066523,42.1781697 C293.506984,41.863733 293.769723,41.3610896 293.774194,40.8243314 C293.773581,40.445462 293.600309,40.0869961 293.302413,39.8483085 C292.974995,39.5554572 292.599976,39.319166 292.193091,39.1493501 C291.781618,38.9650036 291.355063,38.8154409 290.918008,38.7022687 C290.478105,38.595221 290.114706,38.4944702 289.834188,38.4000164 C289.451663,38.2803749 288.814121,38.0599826 287.921563,37.7703242 C286.959339,37.4264068 286.041362,36.9720121 285.186511,36.4164859 C284.246783,35.8018875 283.424453,35.0280537 282.757478,34.1307032 C282.055068,33.187361 281.691586,32.0394243 281.724661,30.8688975 C281.693449,29.7055691 281.926549,28.550116 282.40683,27.4874503 C282.832157,26.5814265 283.452194,25.7777816 284.223823,25.1324015 C284.98432,24.5124234 285.862009,24.047945 286.805866,23.7659694 C287.785071,23.4700596 288.803807,23.3213488 289.827812,23.3251848 C291.209717,23.2914219 292.587933,23.4807204 293.908077,23.8856109 C294.869633,24.1893163 295.795181,24.594668 296.668632,25.0946199 C297.439166,25.5865051 298.136542,26.1820438 298.740641,26.864055 L294.781509,30.7807406 C294.232577,30.0437638 293.522076,29.4388782 292.703124,29.0113055 C291.955654,28.6412013 291.129291,28.4533481 290.293218,28.4634733 C289.613381,28.4695208 288.94393,28.6289001 288.335965,28.9294455 C287.730664,29.1791099 287.346616,29.7744657 287.373278,30.4218161 C287.368672,30.7837586 287.521966,31.1301592 287.794055,31.3726513 C288.100488,31.6409779 288.452221,31.8541079 288.833248,32.0023435 C289.247429,32.1782563 289.673482,32.325539 290.108331,32.4431281 C290.586487,32.5816603 291.007264,32.688708 291.383413,32.7831619 Z" id="Shape" fill="#2A97CF"></path>
        </g>
    </g>
</svg>